<svg id="visual" viewBox="0 0 900 450" width="900" height="450" xmlns="http://www.w3.org/2000/svg" xmlns:xlink="http://www.w3.org/1999/xlink" version="1.1"><rect x="0" y="0" width="900" height="450" fill="#051720"></rect><path d="M0 332L21.5 328.2C43 324.3 86 316.7 128.8 323.7C171.7 330.7 214.3 352.3 257.2 362C300 371.7 343 369.3 385.8 371.2C428.7 373 471.3 379 514.2 371C557 363 600 341 642.8 336.3C685.7 331.7 728.3 344.3 771.2 353.3C814 362.3 857 367.7 878.5 370.3L900 373L900 451L878.5 451C857 451 814 451 771.2 451C728.3 451 685.7 451 642.8 451C600 451 557 451 514.2 451C471.3 451 428.7 451 385.8 451C343 451 300 451 257.2 451C214.3 451 171.7 451 128.8 451C86 451 43 451 21.5 451L0 451Z" fill="#22C55E" stroke-linecap="round" stroke-linejoin="miter"></path></svg>