<svg id="visual" viewBox="0 0 900 450" width="900" height="450" xmlns="http://www.w3.org/2000/svg" xmlns:xlink="http://www.w3.org/1999/xlink" version="1.1"><rect x="0" y="0" width="900" height="450" fill="#ffffff"></rect><defs><linearGradient id="grad1_0" x1="50%" y1="0%" x2="100%" y2="100%"><stop offset="10%" stop-color="#ffffff" stop-opacity="1"></stop><stop offset="90%" stop-color="#ffffff" stop-opacity="1"></stop></linearGradient></defs><defs><linearGradient id="grad2_0" x1="0%" y1="0%" x2="50%" y2="100%"><stop offset="10%" stop-color="#ffffff" stop-opacity="1"></stop><stop offset="90%" stop-color="#ffffff" stop-opacity="1"></stop></linearGradient></defs><g transform="translate(900, 0)"><path d="M0 247.5C-21.7 235.9 -43.4 224.3 -71.7 220.6C-100 217 -135 221.2 -145.5 200.2C-155.9 179.3 -141.8 133.1 -149.7 108.7C-157.5 84.4 -187.4 81.9 -207.3 67.4C-227.3 52.9 -237.4 26.4 -247.5 0L0 0Z" fill="#22C55E"></path></g><g transform="translate(0, 450)"><path d="M0 -247.5C26.1 -244.8 52.2 -242 75.7 -233C99.2 -224 120.1 -208.7 140.5 -193.4C160.9 -178 180.7 -162.7 197.4 -143.4C214.1 -124.2 227.6 -101 235.4 -76.5C243.2 -51.9 245.4 -26 247.5 0L0 0Z" fill="#22C55E"></path></g></svg>