<?xml version="1.0" encoding="UTF-8"?>
<svg id="visual" xmlns="http://www.w3.org/2000/svg" version="1.1" viewBox="0 0 900 450">
  <defs>
    <style>
      .cls-1 {
        font-family: Gibson-SemiBold, Gibson;
        font-size: 3.7px;
        font-weight: 600;
      }

      .cls-1, .cls-2 {
        fill: #fff;
      }

      .cls-3 {
        fill: #001220;
      }

      .cls-3, .cls-4, .cls-2 {
        stroke-width: 0px;
      }

      .cls-5 {
        fill: none;
        stroke: #fff;
        stroke-miterlimit: 10;
        stroke-width: .5px;
      }

      .cls-4 {
        fill: #3b82f6;
      }
    </style>
  </defs>
  <rect class="cls-3" width="900" height="450"/>
  <path class="cls-4" d="M900,315c-44.4-1.1-88.8-2.3-120.5-24-31.8-21.7-50.9-64-74.7-95.8-23.7-31.9-52-53.4-72.7-84.2-20.8-30.8-33.9-70.9-47.1-111h315v315Z"/>
  <path class="cls-4" d="M0,135c30.1,33.6,60.2,67.2,97.2,80.3,37,13.1,81,5.7,116.3,21.2,35.4,15.4,62.1,53.6,77.5,93,15.5,39.3,19.7,79.9,24,120.5H0V135Z"/>
  <g>
    <path class="cls-2" d="M801.7,400c.7-2,1.3-3.8,1.9-5.7.6-1.8.6-1.8,2.5-1.8.4,0,.6.1.8.6.7,2.2,1.5,4.4,2.4,6.9.8-2.1,1.5-4,2.1-5.9.6-1.6.6-1.7,2.3-1.6.4,0,.8,0,1.4,0-.5,1.3-.9,2.4-1.3,3.5-.9,2.4-1.9,4.8-2.8,7.2-.2.5-.4.7-.9.7-2.2,0-2.2,0-3-2.1-.5-1.4-1.1-2.9-1.6-4.3,0,0,0,0,0,0-.7,1.9-1.3,3.8-2,5.7-.2.5-.4.7-1,.7-2.3,0-2.3,0-3.1-2.2-1.1-2.8-2.1-5.7-3.2-8.5,0-.2-.1-.4-.2-.7,1,0,1.9,0,2.8,0,.2,0,.4.4.5.6.7,1.9,1.4,3.9,2.1,5.8,0,.3.2.5.4,1Z"/>
    <path class="cls-2" d="M754.6,402.7c0,.4,0,.8,0,1.3h-2.9v-15.2h3.1v5.9c.3-.2.4-.2.5-.3,1.8-2.3,5-2.1,7.1,0,1.7,1.7,2.1,4.5.9,6.6-1.3,2.3-3.7,3.5-6.1,2.9-.8-.2-1.5-.7-2.4-1.2ZM757.7,395.2c-2,0-3.2,1-3.2,2.7,0,1.8,1.3,3.2,3.1,3.2,1.6,0,3.2-1.4,3.1-3,0-1.7-1.3-2.9-3-2.9Z"/>
    <path class="cls-2" d="M797,399.4h-8.9c.4,1.6,2,2.5,3.7,2,.7-.2,1.3-.5,1.9-.9.5-.4.8-.4,1.2,0,.1.1.2.2.4.3,1,.9,1,.9,0,1.8-2,1.7-4.3,1.9-6.7,1.1-2.2-.8-3.4-2.6-3.6-4.9-.3-2.5.7-4.4,2.9-5.6,3.9-2.2,8.2.2,9,4.1.1.6.2,1.3.3,2ZM788,397h5.7c-.5-1.3-1.8-2-3.1-1.9-1.4.1-2.3.8-2.6,1.9Z"/>
    <path class="cls-2" d="M849.8,399.4h-8.7c.3,2.5,3.2,2.8,6,.7.6.5,1.2,1.1,1.9,1.6-1.3,2.3-4.9,3.2-7.7,2-2.6-1.1-4.1-4.3-3.2-7,.8-2.9,3.9-4.7,7-4.1,2.6.5,5,3.3,4.7,6.8ZM846.6,397c-.6-1.5-1.8-2.1-3.2-1.9-1.3.2-2.1.9-2.2,1.9h5.4Z"/>
    <path class="cls-2" d="M776.6,392.6c-.9,2.2-1.8,4.2-2.6,6.3-.7,1.7-1.4,3.4-2.1,5.1-.9,2.3-2.4,3.8-5,3.8-.2,0-.4,0-.6,0v-3.2c.4,0,.8,0,1.2,0,1.2-.1,1.7-1,1.2-2-1.4-3-2.9-6-4.3-8.9-.1-.3-.2-.6-.4-1,1,0,2,0,2.9,0,.2,0,.4.3.5.5,1,2.2,1.9,4.5,3,6.9.2-.5.4-.8.5-1.1.8-1.9,1.5-3.8,2.2-5.7.2-.5.5-.7,1-.7.7,0,1.5,0,2.4,0Z"/>
    <path class="cls-2" d="M826,392.6c1,0,1.9,0,2.8,0,.2,0,.5.3.6.6.8,2.1,1.6,4.1,2.3,6.2.1.4.3.7.5,1.3.6-1.5,1.2-2.8,1.7-4.1.5-1.1.9-2.3,1.4-3.4.1-.3.5-.6.8-.6.8,0,1.6,0,2.5,0,0,.2-.1.5-.2.6-1.5,3.3-2.9,6.7-4.4,10-.2.5-.5.8-1.1.7-2.4,0-2.4,0-3.3-2.2-1.2-2.9-2.3-5.7-3.5-8.5,0-.2-.1-.4-.2-.7Z"/>
    <path class="cls-2" d="M783.7,401.4v2.6c-1.1,0-2.1.1-3.1,0-1.3-.2-2.1-1.4-2.2-3.1,0-1.4,0-2.7,0-4.1,0-.3,0-.5,0-.9-.4,0-.7,0-1.1,0v-3c.4,0,.7,0,1.1-.1,0-.6,0-1.2,0-1.8,0-.3.2-.6.4-.7.8-.4,1.6-.7,2.5-1.2v3.7h2.3v3.1h-2.2c0,1.5,0,3,0,4.4,0,.7.5,1.2,1.3,1.1.3,0,.6,0,.9,0Z"/>
    <path class="cls-2" d="M815.8,395.7c-.3-.6-.6-1.2-.9-1.9,1.1-.8,2.3-1.2,3.5-1.4,3.2-.5,6.6,1.1,8,3.8,0,.2.3.8.3,1.2.1,2.1.1,3.8.1,6-.8,0-1.7,0-2.5,0-.2,0-.4-.4-.4-.6,0-1.3,0-2,0-3.3.1-3.5-2.5-4.5-5.1-4.1-.7,0-1.4.4-2.2.7s-.6,0-.7-.3Z"/>
    <path class="cls-2" d="M819.1,396.7c2,0,3.7,1.4,3.9,3.3.2,2-1.2,3.7-3.2,4-2.7.4-4.4-.6-4.8-2.9-.5-2.4,1.5-4.4,4.2-4.4ZM818.9,401.7c.9,0,1.6-.5,1.6-1.3,0-.7-.6-1.3-1.5-1.3-.9,0-1.5.5-1.6,1.3,0,.8.6,1.3,1.5,1.3Z"/>
  </g>
  <text class="cls-1" transform="translate(851.2 393.6)"><tspan x="0" y="0">c</tspan></text>
  <circle class="cls-5" cx="852.2" cy="392.7" r="1.5"/>
</svg>