<svg id="visual" viewBox="0 0 900 450" width="900" height="450" xmlns="http://www.w3.org/2000/svg" xmlns:xlink="http://www.w3.org/1999/xlink" version="1.1"><rect x="0" y="0" width="900" height="450" fill="#ffffff"></rect><path d="M0 351L18.8 347.8C37.7 344.7 75.3 338.3 112.8 328C150.3 317.7 187.7 303.3 225.2 298C262.7 292.7 300.3 296.3 337.8 311.2C375.3 326 412.7 352 450.2 367.3C487.7 382.7 525.3 387.3 562.8 380.3C600.3 373.3 637.7 354.7 675.2 353C712.7 351.3 750.3 366.7 787.8 372.7C825.3 378.7 862.7 375.3 881.3 373.7L900 372L900 451L881.3 451C862.7 451 825.3 451 787.8 451C750.3 451 712.7 451 675.2 451C637.7 451 600.3 451 562.8 451C525.3 451 487.7 451 450.2 451C412.7 451 375.3 451 337.8 451C300.3 451 262.7 451 225.2 451C187.7 451 150.3 451 112.8 451C75.3 451 37.7 451 18.8 451L0 451Z" fill="#0066FF" stroke-linecap="round" stroke-linejoin="miter"></path></svg>