<svg id="visual" viewBox="0 0 900 450" width="900" height="450" xmlns="http://www.w3.org/2000/svg" xmlns:xlink="http://www.w3.org/1999/xlink" version="1.1"><rect x="0" y="0" width="900" height="450" fill="#ffffff"></rect><defs><linearGradient id="grad1_0" x1="50%" y1="0%" x2="100%" y2="100%"><stop offset="10%" stop-color="#ffffff" stop-opacity="1"></stop><stop offset="90%" stop-color="#ffffff" stop-opacity="1"></stop></linearGradient></defs><defs><linearGradient id="grad2_0" x1="0%" y1="0%" x2="50%" y2="100%"><stop offset="10%" stop-color="#ffffff" stop-opacity="1"></stop><stop offset="90%" stop-color="#ffffff" stop-opacity="1"></stop></linearGradient></defs><g transform="translate(900, 0)"><path d="M0 360C-44.7 349.4 -89.3 338.9 -133.9 323.4C-178.6 307.8 -223.1 287.3 -254.6 254.6C-286 221.8 -304.3 176.9 -319.7 132.4C-335 87.9 -347.5 44 -360 0L0 0Z" fill="#0066FF"></path></g><g transform="translate(0, 450)"><path d="M0 -360C50.6 -353 101.1 -346.1 131.3 -316.9C161.4 -287.7 171.1 -236.3 206.5 -206.5C241.8 -176.7 302.7 -168.6 332.6 -137.8C362.5 -107 361.2 -53.5 360 0L0 0Z" fill="#0066FF"></path></g></svg>